<svg xmlns="http://www.w3.org/2000/svg" viewBox="0 0 103 101.02"><g id="Layer_2" data-name="Layer 2"><g id="Layer_1-2" data-name="Layer 1"><path d="M17,57l-1.47,2H57a6.75,6.75,0,0,1,2.32.61C60.13,60,61,60.65,61,63V78.33a6.75,6.75,0,0,1-.61,2.32c-.41.81-1,1.68-3.39,1.68H23.17A28.57,28.57,0,0,0,6,88.88v-17L0,79.9V96c0,3.84.88,5,2,5,1.74,0,4-3,4-3l1.21-1.63c6-8,16-8,16-8H57c10,0,10-10,10-10V63c0-10-10-10-10-10H21.15A18.6,18.6,0,0,0,17,57Z"/><path d="M93,0H10C0,0,0,10,0,10V73s0,0,0,0c.43,0,17-23,17-23,6-8,16-8,16-8H93c10,0,10-10,10-10V10C103,0,93,0,93,0Zm4,10V31.94a6.44,6.44,0,0,1-.71,2.56c-.41.73-1,1.5-3.29,1.5H33c-.53,0-13.11.12-20.78,10.46l0,.06L6,55v-45A6.44,6.44,0,0,1,6.71,7.5C7.12,6.77,7.75,6,10,6H92.94a6.44,6.44,0,0,1,2.56.71C96.23,7.12,97,7.75,97,10Z"/></g></g></svg>
